<?xml version="1.0" standalone="no"?>
<!DOCTYPE svg PUBLIC "-//W3C//DTD SVG 20010904//EN"
 "http://www.w3.org/TR/2001/REC-SVG-20010904/DTD/svg10.dtd">
<svg version="1.0" xmlns="http://www.w3.org/2000/svg"
 width="302.000000pt" height="302.000000pt" viewBox="0 0 302.000000 302.000000"
 preserveAspectRatio="xMidYMid meet">
<metadata>
Created by potrace 1.14, written by Peter Selinger 2001-2017
</metadata>
<g transform="translate(0.000000,302.000000) scale(0.100000,-0.100000)"
fill="#000000" stroke="none">
<path d="M1350 3013 c-263 -39 -445 -101 -598 -204 -23 -16 -45 -29 -48 -29
-14 0 -165 -121 -236 -188 -77 -74 -175 -191 -229 -277 -73 -114 -154 -314
-185 -457 -8 -40 -17 -82 -20 -93 -31 -138 -23 -420 16 -585 76 -316 196 -532
419 -750 242 -236 542 -385 846 -420 73 -8 344 -6 405 4 388 61 685 226 931
518 156 184 278 428 323 643 8 39 18 84 21 100 4 17 8 102 10 190 12 516 -192
943 -601 1256 -180 139 -392 234 -610 274 -82 16 -380 28 -444 18z"/>
</g>
</svg>
